<?xml version="1.0" encoding="utf-8"?>
<!-- Generator: Adobe Illustrator 24.3.0, SVG Export Plug-In . SVG Version: 6.00 Build 0)  -->
<svg version="1.1" id="Layer_1" xmlns="http://www.w3.org/2000/svg" xmlns:xlink="http://www.w3.org/1999/xlink" x="0px" y="0px"
	 viewBox="0 0 80 80" enable-background="new 0 0 80 80" xml:space="preserve">
<g>
	<path fill="#7A8E9B" d="M40,33.252c-1.895,0-3.431,2.11-3.431,4.709c0,1.516,0.521,2.705,1.329,3.232h4.202
		c0.809-0.527,1.329-1.717,1.329-3.232C43.43,35.362,41.894,33.252,40,33.252z"/>
	<g>
		<path fill="#525C6B" d="M32.539,26.892l2.541-10.284c0.062-0.253-0.085-0.514-0.338-0.588c-0.26-0.076-0.532,0.072-0.608,0.332
			l-3.111,10.552c-0.062,0.214-0.021,0.458,0.13,0.644l0.022,0.027l5.59,6.852l-6.493-2.252l-5.047-5.047l0.234-7.186
			c0.008-0.256-0.184-0.479-0.442-0.504c-0.269-0.027-0.509,0.17-0.535,0.439l-0.734,7.497c-0.019,0.196,0.047,0.401,0.197,0.552
			l0.017,0.016l5.39,5.391c0.064,0.063,0.143,0.119,0.232,0.156l0.023,0.01l6.204,2.616l-8.506-0.836l-0.035-0.002
			c-0.197-0.02-0.401,0.045-0.556,0.193L16.225,45.518c-0.19,0.182-0.203,0.484-0.026,0.682c0.181,0.201,0.491,0.219,0.692,0.037
			l10.555-9.451l9.003,1.359c0.017,0.002,0.035,0.004,0.051,0.006c0.013,0.002,0.024-0.004,0.037-0.004l-8.085,2.449l-0.022,0.006
			c-0.235,0.072-0.43,0.26-0.496,0.516l-2.941,11.188l-0.004,0.016c-0.049,0.189-0.02,0.396,0.097,0.57l7.311,10.893
			c0.146,0.217,0.44,0.281,0.664,0.143c0.23-0.143,0.302-0.443,0.159-0.674l-6.726-10.877l2.749-10.461l8.126-1.973
			c0.017-0.004,0.036-0.01,0.053-0.014c0.518-0.158,0.811-0.705,0.654-1.223c-0.14-0.459-0.587-0.723-1.048-0.672
			c0.289-0.146,0.508-0.416,0.541-0.762c0.033-0.334-0.118-0.633-0.357-0.834c0.286-0.09,0.532-0.293,0.638-0.598
			c0.082-0.234,0.06-0.477-0.028-0.691c0.235,0.002,0.474-0.076,0.662-0.246c0.4-0.365,0.431-0.985,0.066-1.385L32.539,26.892z"/>
		<path fill="#525C6B" d="M63.775,45.518L53.287,35.47c-0.144-0.137-0.346-0.215-0.559-0.193l-0.032,0.002l-8.506,0.836l6.204-2.616
			l0.026-0.011c0.083-0.036,0.162-0.087,0.23-0.155l5.389-5.391l0.02-0.019c0.138-0.14,0.216-0.338,0.194-0.549l-0.734-7.497
			c-0.025-0.254-0.244-0.451-0.504-0.442c-0.271,0.009-0.482,0.235-0.474,0.507l0.234,7.186l-5.046,5.047l-6.493,2.252l5.589-6.852
			l0.025-0.03c0.14-0.174,0.195-0.411,0.127-0.641l-3.111-10.552c-0.073-0.25-0.332-0.4-0.587-0.338
			c-0.263,0.066-0.424,0.331-0.358,0.594l2.54,10.284l-6.013,6.626c-0.011,0.012-0.023,0.026-0.034,0.039
			c-0.342,0.42-0.279,1.037,0.141,1.379c0.181,0.148,0.399,0.205,0.617,0.207c-0.098,0.234-0.106,0.504,0,0.758
			c0.115,0.273,0.345,0.457,0.608,0.541c-0.249,0.213-0.397,0.533-0.346,0.881c0.049,0.322,0.259,0.57,0.529,0.709
			c-0.48-0.051-0.938,0.244-1.056,0.727c-0.128,0.525,0.195,1.057,0.722,1.184l8.126,1.973l2.749,10.461l-6.727,10.877
			c-0.138,0.223-0.075,0.518,0.144,0.664c0.225,0.15,0.529,0.092,0.68-0.133l7.312-10.893c0.107-0.162,0.149-0.369,0.097-0.572
			l-0.004-0.014l-2.939-11.188c-0.063-0.238-0.245-0.439-0.498-0.516l-0.02-0.006l-8.113-2.457c0.039-0.002,0.075,0.012,0.115,0.006
			l9.003-1.359l10.555,9.451c0.196,0.176,0.498,0.166,0.681-0.025C63.977,46.016,63.97,45.706,63.775,45.518z"/>
	</g>
	<path fill="#525C6B" d="M46.309,48.014c0-3.945-2.825-8.123-6.309-8.123c-3.484,0-6.309,4.178-6.309,8.123
		c0,3.945,2.824,6.164,6.309,6.164C43.484,54.179,46.309,51.96,46.309,48.014z"/>
	<path fill="#7A8E9B" d="M46.309,48.581c0-3.582-2.825-7.377-6.309-7.377c-3.484,0-6.309,3.795-6.309,7.377
		c0,3.584,2.824,5.598,6.309,5.598C43.484,54.179,46.309,52.165,46.309,48.581z"/>
</g>
</svg>
